<svg id="visual" viewBox="0 0 900 600" width="900" height="600" xmlns="http://www.w3.org/2000/svg" xmlns:xlink="http://www.w3.org/1999/xlink" version="1.1"><rect x="0" y="0" width="900" height="600" fill="#14213d"></rect><defs><linearGradient id="grad1_0" x1="33.3%" y1="0%" x2="100%" y2="100%"><stop offset="20%" stop-color="#14213d" stop-opacity="1"></stop><stop offset="80%" stop-color="#14213d" stop-opacity="1"></stop></linearGradient></defs><defs><linearGradient id="grad2_0" x1="0%" y1="0%" x2="66.7%" y2="100%"><stop offset="20%" stop-color="#14213d" stop-opacity="1"></stop><stop offset="80%" stop-color="#14213d" stop-opacity="1"></stop></linearGradient></defs><g transform="translate(900, 0)"><path d="M0 351.5C-18.7 320.8 -37.4 290 -54.2 272.7C-71.1 255.3 -86.1 251.3 -102.9 248.5C-119.8 245.7 -138.5 244.2 -165 246.9C-191.5 249.7 -225.7 256.9 -248.6 248.6C-271.4 240.3 -282.9 216.5 -286 191.1C-289.1 165.8 -283.8 138.9 -281.8 116.7C-279.8 94.5 -281.1 77 -293.3 58.3C-305.4 39.7 -328.5 19.8 -351.5 0L0 0Z" fill="#fca311"></path></g><g transform="translate(0, 600)"><path d="M0 -351.5C17.2 -313.1 34.4 -274.7 51.7 -259.9C69 -245.2 86.2 -254.1 109.1 -263.3C131.9 -272.5 160.2 -281.9 188.9 -282.7C217.6 -283.5 246.6 -275.5 248.6 -248.6C250.6 -221.6 225.6 -175.6 223.7 -149.4C221.8 -123.3 242.9 -116.9 251.3 -104.1C259.6 -91.3 255.1 -72.1 269.7 -53.6C284.3 -35.2 317.9 -17.6 351.5 0L0 0Z" fill="#fca311"></path></g></svg>